<svg xmlns="http://www.w3.org/2000/svg" viewBox="0 0 518 518"><circle cx="259" cy="259" r="259" style="fill:#20b2aa"/><path d="M387.23,408.26a5,5,0,0,1-5-5V371.2a59.18,59.18,0,0,0-59.12-59.11H194.88a59.18,59.18,0,0,0-59.11,59.11v32.06a5,5,0,1,1-10,0V371.2a69.18,69.18,0,0,1,69.11-69.11H323.11a69.19,69.19,0,0,1,69.12,69.11v32.06A5,5,0,0,1,387.23,408.26Z" style="fill:#fff"/><path d="M259,248a69.12,69.12,0,1,1,69.11-69.11A69.19,69.19,0,0,1,259,248Zm0-128.23a59.12,59.12,0,1,0,59.11,59.12A59.19,59.19,0,0,0,259,119.74Z" style="fill:#fff"/></svg>