<svg xmlns="http://www.w3.org/2000/svg" viewBox="0 0 380.4 310.36"><path d="M38.59,187.38a58.4,58.4,0,0,0,26,38.1c21.8,12.1,49.5,10.5,54.4,10.6,20.2,0,38.5-8.8,42.6-11.1s19.8-12.1,21.3-22.6-6.1-22.6-18-24.5c-39.1-6.3-68.6-64-75.2-71.8s-17.1-15.39-26.2-15.5c-13.2.21-21.2,16.61-23.2,21.71-4.3,12.19-5.4,41.29-5.4,41.29C34.9,166.69,37.8,183.48,38.59,187.38Z" style="fill:#fff"/><path d="M151.8,107.89s-3.1-14.1-17.3-12.7c-19,1.89-31.5-10.8-47.9-5.5C76.3,100,66.9,123.08,66.9,123.08s-7.8,20.7-6.8,30.4,11.6,14,11.6,14l-3.1,19,114.5-16.6,14.8-38.3-39.6,3.71Z" style="fill:#fff"/><path d="M185.5,277.18s-2.8,13-3.7,17c9.5-1.3,41.9,3.3,45.6,8.5s-4.4,5.9-4.4,5.9H139.2l12.7-38.79Z" style="fill:#fff"/><path d="M138.3,309.29a1.42,1.42,0,0,1-.1-.91l12.7-38.8a1.09,1.09,0,0,1,1.2-.7l33.5,7.4a1,1,0,0,1,.81,1.16v0c0,.1-2.3,10.7-3.4,15.6,11.1-.7,41.2,3.5,45.2,9.1,1.2,1.61,1.5,3.11.9,4.4-1.2,2.5-5.5,3-6.1,3H139.2A1.53,1.53,0,0,1,138.3,309.29Zm43.7-14.1a.93.93,0,0,1-.9-.3,1,1,0,0,1-.2-.9c.7-3.3,2.8-12.9,3.5-16l-31.7-7-12,36.6H223c.9-.1,3.7-.6,4.3-1.9.3-.61,0-1.4-.7-2.4-3-4.21-28.6-8.3-40.8-8.3A20.14,20.14,0,0,0,182,295.19Z"/><path d="M259.8,263.79s7.9,15.1,10.7,19c18.5-5.4,56.1-5.81,57.9-2.1s-3.5,4.89-3.5,4.89l-83.6,23-15-35.2Z" style="fill:#fff"/><path d="M240.59,309.11l-15-35.19a1.1,1.1,0,0,1,0-.8,1,1,0,0,1,.6-.5l33.5-9.7a1.07,1.07,0,0,1,1.2.5c0,.09,7.2,13.8,10.2,18.3,17.1-4.7,56-6.4,58.4-1.4a4,4,0,0,1,.1,3.4c-1.1,2.1-4,2.79-4.3,2.89l-83.6,23h-.3C241,309.58,240.59,309.38,240.59,309.11Zm30.2-25.5a1.1,1.1,0,0,1-1.1-.39c-2.5-3.5-8.8-15.3-10.4-18.4l-31.6,9.2,14.2,33.3,82.8-22.81c.7-.09,2.5-.69,3-1.79a1.86,1.86,0,0,0-.1-1.61c-.9-1.19-7.9-1.89-17.2-1.89-12.19,0-28.39,1.26-39.59,4.36Z"/><path d="M240,182.68l-37.3,100.2-66.5-11.5,50.5-101.2,39.6-4.8a13.06,13.06,0,0,1,13.7,17.3Z" style="fill:#94cfcb"/><path d="M165.9,173.19c-.2-.3-20.3-33.2-22.1-60.3a.9.9,0,0,1,.68-1.08l.22,0c.6,0,1.1.29,1.1.9,1.8,26.6,21.6,59.1,21.8,59.39a1,1,0,0,1-.28,1.39h0a.74.74,0,0,1-.5.1A1.33,1.33,0,0,1,165.9,173.19Z"/><path d="M63.9,163.39a18.68,18.68,0,0,1-4.8-16.1c5.9-34.7,25-56.6,25.2-56.8a1,1,0,0,1,1.39-.27A1,1,0,0,1,86,91.6a1,1,0,0,1-.16.19c-.1.19-18.8,21.59-24.7,55.79a17.19,17.19,0,0,0,14.19,19.74,16.81,16.81,0,0,0,4.31.16c24.5-2.2,58.3-7.7,64.2-8.7l-2.5-32.4-52.2,14a1,1,0,0,1-.86-1.8.88.88,0,0,1,.36-.1l53.3-14.3a.78.78,0,0,1,.8.1.86.86,0,0,1,.4.7l2.7,34.5a.94.94,0,0,1-.76,1.09h0c-.4,0-38.3,6.5-65.2,8.9a10.87,10.87,0,0,1-1.8.1A19.21,19.21,0,0,1,63.9,163.39Z"/><path d="M157.5,135.58l-6.5-27.9a15.48,15.48,0,0,0-16.5-11.8,1,1,0,1,1-.2-2,17.59,17.59,0,0,1,18.6,13.4l6.3,27.1,43.3-4.3a1.09,1.09,0,0,1,1.1.9,1,1,0,0,1-.89,1.1h0l-44.3,4.4h0a.9.9,0,0,1-.9-.9Z"/><path d="M176.4,131.11c8.4-2.3,9.9-7.39,9.5-8.6-.9-2.5-2.9-3-6.3-.4s-13.7,3-13.7,3C169.1,126.88,176.4,131.11,176.4,131.11Z" style="fill:#fff"/><path d="M175.9,132.11c0-.1-7.2-4.2-10.4-6a1,1,0,0,1,.4-1.9c2.8-.1,10.6-.9,13.1-2.8q3.15-2.39,5.4-1.8a3.59,3.59,0,0,1,2.5,2.61,4.49,4.49,0,0,1-.6,3.39c-.9,1.71-3.4,4.9-9.6,6.5h-.3C176.2,132.11,176,132,175.9,132.11Zm4.3-9c-2.3,1.7-7.5,2.5-10.9,2.9,2.8,1.6,6.1,3.5,7.2,4.1,7.6-2.2,8.5-6.6,8.4-7.2-.2-.8-.6-1.3-1.1-1.4-.1-.1-.2-.1-.4-.1A5.83,5.83,0,0,0,180.2,123.11Z"/><path d="M144.59,154.29c5.9-.1,9.3-5.2,9.3-5.2a12,12,0,0,1,.1,5,2.72,2.72,0,0,0,2.7,3.8c2-.1,3.2-2.8,3.8-4.6,2.6,2.5,5,1.3,7.2-.7a4,4,0,0,0,5.3-.7c2.9-3.81,1.2-11.41-.9-14.7,3.4,1.39,7,11.1,9.2,12.5,4.3,1.6,5.3-2.2,4.4-4.9-4-10.91-14.2-19.21-19.7-19.71s-23.3,6.5-23.3,6.5S144.2,150.88,144.59,154.29Z" style="fill:#fff"/><path d="M153.5,157.68a4,4,0,0,1-.6-3.7,6.27,6.27,0,0,0,.2-2.4,12.66,12.66,0,0,1-8.6,3.9,1,1,0,0,1-1-.9l-1.8-22.9a1,1,0,0,1,.6-1c.7-.3,18-7,23.7-6.5,6.3.5,16.6,9.5,20.5,20.4.6,1.8.6,4.2-.9,5.6-.8.7-2.3,1.5-4.8.5-.1,0-.1-.1-.2-.1-1-.7-2.1-2.5-3.7-5.3-.7-1.1-1.4-2.4-2.1-3.5.9,3.6,1,7.91-1.1,10.7a4.29,4.29,0,0,1-3.2,1.8,5.18,5.18,0,0,1-2.8-.4c-1.3,1.2-3.9,2.9-6.8,1.1-.8,1.9-2.1,3.9-4.2,4h-.3A4,4,0,0,1,153.5,157.68Zm7.6-5c1.8,1.69,3.4,1.5,5.8-.71a1,1,0,0,1,1.4,0,3,3,0,0,0,2,.4,2.67,2.67,0,0,0,1.8-1c2.5-3.3,1-10.4-1-13.6a1,1,0,0,1,.1-1.2.91.91,0,0,1,1.1-.3c2.3,1,4.3,4.5,6.3,8,1.1,1.8,2.3,4,3,4.5.9.3,2,.5,2.6-.1a4,4,0,0,0,.4-3.5c-3.9-10.9-13.9-18.7-18.8-19.1-4.6-.4-18.8,4.8-22.1,6.1l1.6,21.2c4.7-.6,7.6-4.7,7.6-4.7a1,1,0,0,1,1-.4.85.85,0,0,1,.8.7,12.6,12.6,0,0,1,.1,5.5,2.12,2.12,0,0,0,.3,1.9,2,2,0,0,0,1.5.6c1.1-.1,2.1-1.4,3-4a1.05,1.05,0,0,1,.7-.6h.2a.72.72,0,0,1,.6.32Z"/><path d="M167.4,153.48a.88.88,0,0,1-.75-1,1.05,1.05,0,0,1,0-.19c0-.1,1.7-6-.8-11.1a1,1,0,1,1,1.66-1.12,1.3,1.3,0,0,1,.14.32c2.8,5.8,1,12.2.9,12.5a1.18,1.18,0,0,1-1,.7C167.5,153.58,167.4,153.58,167.4,153.48Z"/><path d="M160.3,154.39a1.1,1.1,0,0,1-.8-1.2c.6-3.31.6-7.41-.4-8.21a1,1,0,1,1,1.2-1.6c2.6,1.91,1.5,8.81,1.2,10.2a1,1,0,0,1-1,.8Z"/><path d="M235.5,182.11l42.24,81.68L214.2,282.71l-26.7-72-82.8,15.9A29.77,29.77,0,0,1,69.91,202.9a28.4,28.4,0,0,1-.51-4.69l-.3-11.8,131.7-19.5A35.26,35.26,0,0,1,235.5,182.11Z" style="fill:#94cfcb"/><path d="M127,222.29a1,1,0,0,1,.8-1.21l75.6-14.5a1,1,0,1,1,.4,2l-75.6,14.53H128A1,1,0,0,1,127,222.29Z"/><path d="M213.2,283l-26.7-72a1,1,0,0,1,.59-1.29h0a1,1,0,0,1,1.29.58v0l26.7,72a1,1,0,0,1-.59,1.29h0a.38.38,0,0,1-.3.11A1.21,1.21,0,0,1,213.2,283Z"/><path d="M244.7,197.18l-9.9-14.7a34.63,34.63,0,0,0-33.8-14.8l-33.3,4.9a1,1,0,0,1-.87-1.11,1,1,0,0,1,.57-.79l33.3-4.9a36.46,36.46,0,0,1,35.7,15.7l9.9,14.71a1,1,0,0,1-.29,1.38h0a1.31,1.31,0,0,1-.6.21C245.1,197.79,244.7,197.69,244.7,197.18Z"/><polygon points="267.4 153.29 267.6 160.68 151 174.68 149.7 167.79 267.4 153.29" style="fill:#fff"/><path d="M150,175l-1.2-6.9a1.09,1.09,0,0,1,.2-.8,1,1,0,0,1,.7-.4l117.7-14.6a.9.9,0,0,1,1.08.65,1.14,1.14,0,0,1,0,.26l.1,7.5a1.08,1.08,0,0,1-.9,1l-116.6,14H151A1,1,0,0,1,150,175Zm116.4-20.59-115.5,14.3.9,4.89,114.7-13.7Z"/><polygon points="185.6 163.38 207.3 107.49 290.1 97.09 267.4 153.29 185.6 163.38" style="fill:#fff"/><path d="M184.8,164a1.17,1.17,0,0,1-.1-1l21.7-55.9a.86.86,0,0,1,.8-.6l82.9-10.4a1.08,1.08,0,0,1,.9.4,1.17,1.17,0,0,1,.1,1l-22.7,56.2a.86.86,0,0,1-.8.6l-81.9,10.1h-.11A.88.88,0,0,1,184.8,164Zm103.79-65.7L208,108.38l-20.9,53.8,79.6-9.8Z"/><path d="M68,186.28c0-4.4,2.5-18.5,2.6-19.1a1,1,0,0,1,1.16-.81h0a1.1,1.1,0,0,1,.8,1.2c0,.2-2.5,14.6-2.5,18.8a.94.94,0,0,1-.88,1H69.1A1.18,1.18,0,0,1,68,186.28Z"/><rect x="231.9" y="123.24" width="13.3" height="13.3" transform="translate(-21.97 206.72) rotate(-45)" style="fill:#94cfcb"/><path d="M88.5,233.78c-19.6-3.2-34.4-12.8-42.3-27.6S34.9,159,34.9,159l17,3.1s-1.2,10.2,9.7,13.2c33.9,8.1,41.8,26.7,44.4,44.6s18.4,16,18.4,16C108,237.11,108.1,237,88.5,233.78Z" style="fill:#fff"/><path d="M105.1,219.88c-2.4-17-9.5-35.6-43.7-43.7A13.43,13.43,0,0,1,51,162a.93.93,0,0,1,1-.91h.13a1,1,0,0,1,.9,1.09h0c-.1.4-1,9.3,8.9,12.1,35.5,8.5,42.8,28.7,45.2,45.4s16.6,15.2,17.2,15.1a1,1,0,0,1,.2,2h0a7.05,7.05,0,0,1-1.3.1C119.2,236.88,107.3,235.58,105.1,219.88Z"/><path d="M75.3,231.48c-22.2-6.9-35.7-25.6-40.1-55.5-4.1-28.09,1.5-54.79,2.2-57.79,4.2-18.81,16.4-28.61,26.4-28.61h.1c9,.11,16.6,6.91,16.9,7.21a1,1,0,0,1-1.3,1.5c-.1-.1-7.4-6.6-15.6-6.71h-.1c-7.4,0-20,7.21-24.4,27.11-.6,2.89-6.2,29.29-2.1,57,4.3,29,17.3,47.19,38.7,53.89,50,15.71,85.1-5.69,85.4-5.89a1,1,0,0,1,1.39.27v0a1,1,0,0,1-.28,1.39h0c-.2.2-19.6,12-49.9,12A124.6,124.6,0,0,1,75.3,231.48Z"/><path d="M97.2,309.58a1,1,0,0,1-.9-1.09h0l8.9-72.1a1,1,0,1,1,2,.2l-8.9,72.1a1.06,1.06,0,0,1-1,.9Z"/><path d="M28.9,309.48a1,1,0,0,1-.61-1.28v0l30.29-86.49a1,1,0,0,1,1.9.69h0l-30.3,86.5a1,1,0,0,1-.9.7A.59.59,0,0,1,28.9,309.48Z"/><path d="M143.19,45.51s6.4-24.4-20.5-20.9c-13.7,2-30,11.8-26.6,21.7-4.3,2.6-12,14.6-9.1,26.4,2.8,11.6,10.6,15.3,20.5,14.1-.2-4-3.6-36.6-3.6-36.6Z" style="fill:#94cfcb"/><path d="M123.79,87.41v5.7s-5.6,3.8-15.8.1c-.3-3.3-.7-13.5-.7-13.5a4.75,4.75,0,0,1-5.5,2.4c-4.1-.8-5.1-4.3-5.4-7.3s1.8-8.5,9.3-3.6l-1.7-21,37.1-4.5s9.2-1.4,9.4,3.2-2.7,6.1-8.8,7.5c-.1,2.8,2.4,32.6-14.4,31.4Z" style="fill:#fff"/><circle cx="123.29" cy="57.41" r="1.5"/><circle cx="129.89" cy="57.01" r="1.5"/><path d="M116.39,95.91a24.54,24.54,0,0,1-8.8-1.7,1.11,1.11,0,0,1-.7-.9c-.2-2.3-.5-7.9-.6-11.1a6,6,0,0,1-4.8.9c-3.7-.7-5.8-3.5-6.2-8.2a6.52,6.52,0,0,1,2.6-6c2.1-1.2,4.8-.8,8.2,1.4A1,1,0,1,1,105,72c-2.7-1.7-4.8-2.2-6.1-1.4s-1.7,2.9-1.6,4.1c.3,3.9,1.8,5.9,4.5,6.4,3.3.6,4.4-1.8,4.4-1.8a1,1,0,0,1,1.9.3c0,.1.4,9.1.7,12.8,7.7,2.6,12.4.7,13.9,0v-5a1,1,0,0,1,2,0v5.7a1.23,1.23,0,0,1-.4.8C124.09,94.11,121.39,95.91,116.39,95.91Z"/><path d="M128.09,88.81H127l-6.8-.7a1.17,1.17,0,0,1-.9-1.1,1.09,1.09,0,0,1,1.1-.9l6.8.7a9.23,9.23,0,0,0,7.4-2.5c6.4-6.1,6-21.3,5.9-26.3v-1.6a1,1,0,0,1,.8-.9c6.3-1.4,8.1-2.9,8-6.5a1.49,1.49,0,0,0-.6-1.3c-1.7-1.4-6-1.1-7.6-.9a1,1,0,0,1-1.33-.49,1,1,0,0,1,.49-1.32,1,1,0,0,1,.54-.09c.7-.1,6.5-.9,9.1,1.3a3.82,3.82,0,0,1,1.4,2.8c.2,5.6-3.8,7.2-8.8,8.4v.7c.1,5.2.5,21.2-6.5,27.8A11.65,11.65,0,0,1,128.09,88.81Z"/><path d="M96.09,47.31a1.05,1.05,0,0,1-.9-.5c-.1-.3-3.4-6.1-9.2-4a1,1,0,1,1-.7-1.9c5.9-2.2,10.2,2.2,11.6,4.9a1,1,0,0,1-.35,1.37l-.05,0C96.39,47.21,96.29,47.31,96.09,47.31Z"/><rect x="180.71" y="19.33" width="48.47" height="48.47" transform="translate(-4.31 54.09) rotate(-14.88)" style="fill:#fff"/><circle cx="291.52" cy="72.89" r="9.28" transform="translate(172.87 348.97) rotate(-80.78)" style="fill:#94cfcb"/><polygon points="291.35 0 295.5 12.14 307.84 15.8 297.47 23.4 297.87 36.33 287.4 28.83 275.26 33.17 279.21 20.93 271.21 10.76 284.15 10.66 291.35 0" style="fill:#94cfcb"/><path d="M187,75.33a.84.84,0,0,1-.49-.1,1.43,1.43,0,0,1-.5-.59L173.08,25.87a1,1,0,0,1,.69-1.19l48.82-12.93a1,1,0,0,1,1.18.69l12.94,48.77a1,1,0,0,1-.69,1.18L187.25,75.33Zm-11.75-49,12.44,46.78,46.79-12.43-12.43-46.8Z"/><rect x="192.65" y="38.21" width="6.71" height="20.73" transform="translate(-5.9 51.96) rotate(-14.88)" style="fill:#94cfcb"/><rect x="203.01" y="42.16" width="6.71" height="14.12" transform="translate(-5.72 54.65) rotate(-14.88)" style="fill:#94cfcb"/><rect x="211.09" y="28.02" width="6.71" height="25.87" transform="translate(-3.33 56.44) rotate(-14.88)" style="fill:#94cfcb"/><path d="M194.31,60.72a1.2,1.2,0,0,1-1-.69,1,1,0,0,1,.69-1.19l27.74-7.4a1,1,0,0,1,.49,1.87l-27.64,7.41Z"/><circle cx="234.14" cy="63.48" r="20.04" style="fill:#fff"/><path d="M234.14,84.5a21,21,0,1,1,21-21h0A21,21,0,0,1,234.14,84.5Zm0-40.17a19,19,0,1,0,19.05,19,19,19,0,0,0-19.05-19Z"/><path d="M224.66,69.6a.87.87,0,0,1-.69-.3,1,1,0,0,1-.05-1.33l.05,0,5.82-5.81a1,1,0,0,1,1.39,0l3.65,3.66,8.19-8.2A1,1,0,0,1,244.4,59l-8.88,8.88a1,1,0,0,1-1.38,0l-3.66-3.65-5.13,5.13A1.09,1.09,0,0,1,224.66,69.6Z"/><path d="M243.59,63.77a.92.92,0,0,1-1-.83.49.49,0,0,1,0-.17V59.21H239a1,1,0,0,1,0-2h4.56a.93.93,0,0,1,1,.85v4.7a.93.93,0,0,1-.84,1Z"/><path d="M379.3,310.35H1a1,1,0,0,1,0-2H379.4a.94.94,0,0,1,1,.88v.12a1,1,0,0,1-1,1Z"/></svg>